<?xml version="1.0" encoding="UTF-8"?>
<svg width="42px" height="32px" viewBox="0 0 42 32" version="1.1" xmlns="http://www.w3.org/2000/svg" xmlns:xlink="http://www.w3.org/1999/xlink">
    <!-- Generator: Sketch 43.2 (39069) - http://www.bohemiancoding.com/sketch -->
    <title>envelope</title>
    <desc>Created with Sketch.</desc>
    <defs></defs>
    <g id="Page-1" stroke="none" stroke-width="1" fill="none" fill-rule="evenodd">
        <g id="Desktop-HD-Copy" transform="translate(-809.000000, -1246.000000)" fill-rule="nonzero" fill="#FFFFFF">
            <g id="envelope" transform="translate(809.431818, 1246.838710)">
                <path d="M40.2678356,10.0920386 C40.5804865,9.84530898 41.0454545,10.0761206 41.0454545,10.4661126 L41.0454545,26.7423106 C41.0454545,28.8514511 39.3218661,30.5626407 37.1974432,30.5626407 L3.84801136,30.5626407 C1.72358842,30.5626407 0,28.8514511 0,26.7423106 L0,10.4740716 C0,10.0761206 0.456951349,9.853268 0.777618963,10.0999977 C2.5733576,11.4848673 4.95431463,13.243811 13.1313388,19.1414455 C14.8228604,20.3671348 17.6768022,22.9458576 20.5227273,22.9299395 C23.3846857,22.9538166 26.2947443,20.3193806 27.9221325,19.1414455 C36.0991566,13.243811 38.4720969,11.4769083 40.2678356,10.0920386 Z M20.5227273,20.3750938 C22.3825994,20.4069299 25.060174,18.0510596 26.406978,17.0800591 C37.0451261,9.41552185 37.8548118,8.74696408 40.307919,6.83679904 C40.7728871,6.4786431 41.0454545,5.92151163 41.0454545,5.33254407 L41.0454545,3.82033008 C41.0454545,1.71118952 39.3218661,0 37.1974432,0 L3.84801136,0 C1.72358842,-2.26208982e-15 0,1.71118952 0,3.82033008 L0,5.33254407 C0,5.92151163 0.272567472,6.47068408 0.737535511,6.83679904 C3.19064276,8.73900506 4.00032848,9.41552185 14.6384766,17.0800591 C15.9852805,18.0510596 18.6628551,20.4069299 20.5227273,20.3750938 Z" id="Shape"></path>
            </g>
        </g>
    </g>
</svg>