<?xml version="1.0" encoding="UTF-8"?>
<svg width="43px" height="41px" viewBox="0 0 43 41" version="1.1" xmlns="http://www.w3.org/2000/svg" xmlns:xlink="http://www.w3.org/1999/xlink">
    <!-- Generator: Sketch 43.2 (39069) - http://www.bohemiancoding.com/sketch -->
    <title>linkedin-in</title>
    <desc>Created with Sketch.</desc>
    <defs></defs>
    <g id="Page-1" stroke="none" stroke-width="1" fill="none" fill-rule="evenodd">
        <g id="Desktop-HD-Copy" transform="translate(-699.000000, -1237.000000)" fill-rule="nonzero" fill="#FFFFFF">
            <g id="linkedin-in" transform="translate(699.977273, 1237.354839)">
                <path d="M9.18736686,40.7267963 L0.677831653,40.7267963 L0.677831653,13.5362053 L9.18736686,13.5362053 L9.18736686,40.7267963 L9.18736686,40.7267963 Z M4.92801931,9.82715777 C2.20753282,9.82715777 0,7.59082029 0,4.89085188 C0,2.19088346 2.20753282,0 4.92801931,0 C7.64850581,0 9.85603863,2.19088346 9.85603863,4.89085188 C9.85603863,7.59082029 7.64850581,9.82715777 4.92801931,9.82715777 Z M41.0362947,40.7267963 L32.5450792,40.7267963 L32.5450792,27.4905875 C32.5450792,24.3360789 32.48096,20.2906717 28.1208537,20.2906717 C23.6966282,20.2906717 23.0187965,23.7179044 23.0187965,27.2633174 L23.0187965,40.7267963 L14.5184212,40.7267963 L14.5184212,13.5362053 L22.6798807,13.5362053 L22.6798807,17.2452528 L22.7989592,17.2452528 C23.9347853,15.1089142 26.7102311,12.8543951 30.8505001,12.8543951 C39.4607941,12.8543951 41.0454545,18.481602 41.0454545,25.7906074 L41.0454545,40.7267963 L41.0362947,40.7267963 Z" id="Shape"></path>
            </g>
        </g>
    </g>
</svg>