<?xml version="1.0" encoding="UTF-8"?>
<svg width="41px" height="34px" viewBox="0 0 41 34" version="1.1" xmlns="http://www.w3.org/2000/svg" xmlns:xlink="http://www.w3.org/1999/xlink">
    <!-- Generator: Sketch 43.2 (39069) - http://www.bohemiancoding.com/sketch -->
    <title>twitter</title>
    <desc>Created with Sketch.</desc>
    <defs></defs>
    <g id="Page-1" stroke="none" stroke-width="1" fill="none" fill-rule="evenodd">
        <g id="Desktop-HD-Copy" transform="translate(-592.000000, -1244.000000)" fill-rule="nonzero" fill="#FFFFFF">
            <g id="twitter" transform="translate(591.890909, 1244.129032)">
                <path d="M36.8262704,8.22699345 C36.8523247,8.58803679 36.8523247,8.94915953 36.8523247,9.31020287 C36.8523247,20.3225013 28.3880625,33.0112538 12.9178543,33.0112538 C8.15177157,33.0112538 3.72431383,31.6443221 0,29.2717402 C0.677169833,29.3490612 1.32820526,29.3748614 2.03142933,29.3748614 C5.96401678,29.3748614 9.5841938,28.0596094 12.4750925,25.8158695 C8.77683292,25.738469 5.67758043,23.3400076 4.60975728,20.0388584 C5.13068182,20.1161794 5.65152619,20.1677797 6.19850497,20.1677797 C6.95375737,20.1677797 7.70908993,20.0645791 8.41223384,19.8841368 C4.55772896,19.1103705 1.66675009,15.7577004 1.66675009,11.7086643 L1.66675009,11.6055431 C2.78660156,12.2245086 4.08891291,12.6113521 5.46914648,12.662873 C3.20330913,11.1670199 1.71885858,8.61383695 1.71885858,5.7253314 C1.71885858,4.17795741 2.13548597,2.75950479 2.86476429,1.52157384 C7.00578569,6.57641885 13.2303449,9.87748866 20.2100763,10.2386114 C20.0798853,9.61964592 20.0017226,8.97495968 20.0017226,8.33019405 C20.0017226,3.73951361 23.7520906,0 28.4139564,0 C30.8360391,0 33.0237137,1.00580897 34.5603529,2.63058342 C36.461511,2.26954007 38.2845866,1.57317414 39.8993885,0.618965474 C39.274247,2.55326235 37.9460417,4.17803679 36.2011289,5.20956653 C37.8940134,5.02912424 39.5347894,4.56480091 41.0452942,3.92011467 C39.8995488,5.57060988 38.4670464,7.04058342 36.8262704,8.22699345 L36.8262704,8.22699345 Z" id="Shape"></path>
            </g>
        </g>
    </g>
</svg>