<svg width="42" height="32" xmlns="http://www.w3.org/2000/svg"><path d="M40.7 10.93a.483.483 0 01.777.375V27.58c0 2.11-1.723 3.82-3.848 3.82H4.28c-2.124 0-3.847-1.71-3.847-3.82V11.313a.48.48 0 01.777-.374c1.796 1.385 4.177 3.144 12.354 9.041 1.692 1.226 4.546 3.805 7.392 3.789 2.862.024 5.772-2.61 7.399-3.789 8.177-5.897 10.55-7.664 12.346-9.05zM20.955 21.215c1.86.032 4.537-2.324 5.884-3.295 10.638-7.665 11.448-8.333 13.9-10.243a1.9 1.9 0 00.738-1.505V4.66c0-2.11-1.723-3.82-3.848-3.82H4.28C2.156.839.433 2.549.433 4.659v1.512c0 .59.272 1.138.737 1.505 2.453 1.902 3.263 2.578 13.901 10.243 1.347.97 4.025 3.327 5.885 3.295z" fill="#FFF"/></svg>