<svg width="41" height="34" xmlns="http://www.w3.org/2000/svg"><path d="M36.717 8.356c.026.361.026.722.026 1.083 0 11.013-8.464 23.701-23.934 23.701-4.766 0-9.194-1.367-12.918-3.74.677.078 1.328.104 2.031.104 3.933 0 7.553-1.315 10.444-3.56-3.698-.076-6.798-2.475-7.865-5.776.52.077 1.041.129 1.588.129a8.98 8.98 0 002.214-.284c-3.854-.774-6.745-4.126-6.745-8.175v-.103a8.535 8.535 0 003.802 1.057c-2.266-1.496-3.75-4.05-3.75-6.938 0-1.547.416-2.965 1.146-4.203 4.14 5.054 10.365 8.356 17.345 8.717a9.316 9.316 0 01-.208-1.909c0-4.59 3.75-8.33 8.412-8.33a8.43 8.43 0 016.146 2.63 16.662 16.662 0 005.34-2.011 8.323 8.323 0 01-3.699 4.59c1.693-.18 3.334-.644 4.844-1.289a17.988 17.988 0 01-4.219 4.307z" fill="#FFF"/></svg>